<svg xmlns="http://www.w3.org/2000/svg" xmlns:xlink="http://www.w3.org/1999/xlink" viewBox="0 0 265.39 38.87"><defs><style>.cls-1{fill:#fff;}.cls-2{fill:#5e464d;}.cls-3{mask:url(#mask);}</style><mask id="mask" x="0" y="-220.15" width="265.39" height="259.02" maskUnits="userSpaceOnUse"><g id="mask-4"><polygon id="path-3" class="cls-1" points="0 -220.15 265.39 -220.15 265.39 38.87 0 38.87 0 -220.15"/></g></mask></defs><title>truffle-wordmark-dark</title><g id="Layer_2" data-name="Layer 2"><g id="Layer_8" data-name="Layer 8"><polygon id="Fill-12" class="cls-2" points="0 0 20.95 0 20.95 7.11 14.05 7.11 14.05 37.91 6.73 37.91 6.73 7.11 0 7.11 0 0"/><path id="Fill-14" class="cls-2" d="M46.31,14.82H50.6q3.45,0,4.74-.9a3.41,3.41,0,0,0,1.3-3A3.71,3.71,0,0,0,56,8.76a3.59,3.59,0,0,0-1.72-1.32,13,13,0,0,0-4-.4h-4ZM39.09,0h9.68q6.28,0,8.95,1.12A9.18,9.18,0,0,1,62,4.85,11.29,11.29,0,0,1,63.63,11a10.43,10.43,0,0,1-1.8,6.25,10.84,10.84,0,0,1-5.39,3.81l9,16.85H57.53L49,21.86H46.31v16H39.09Z"/><g class="cls-3"><path id="Fill-16" class="cls-2" d="M83.77,0H91V24.52A12.64,12.64,0,0,0,91.57,29a4.33,4.33,0,0,0,1.83,2.1,5.78,5.78,0,0,0,3.08.78A6,6,0,0,0,99.76,31a4.64,4.64,0,0,0,1.91-2.23,16.57,16.57,0,0,0,.53-5.16V0h7.24V22.6a32.77,32.77,0,0,1-.64,7.94,11.23,11.23,0,0,1-2.46,4.28,11.45,11.45,0,0,1-4.19,3.06,14.24,14.24,0,0,1-5.52,1A13.29,13.29,0,0,1,89.45,37a11.06,11.06,0,0,1-4.37-4.74q-1.31-2.85-1.31-9.63Z"/></g><polygon id="Fill-19" class="cls-2" points="131.28 0 150.1 0 150.1 7.04 138.45 7.04 138.45 13.92 150.1 13.92 150.1 20.85 138.45 20.85 138.45 37.91 131.28 37.91 131.28 0"/><polygon id="Fill-21" class="cls-2" points="170.07 0 188.89 0 188.89 7.04 177.24 7.04 177.24 13.92 188.89 13.92 188.89 20.85 177.24 20.85 177.24 37.91 170.07 37.91 170.07 0"/><polygon id="Fill-23" class="cls-2" points="208.8 0 216.02 0 216.02 31.03 226.53 31.03 226.53 37.91 208.8 37.91 208.8 0"/><polygon id="Fill-25" class="cls-2" points="244.7 0 265.39 0 265.39 7.06 251.86 7.06 251.86 13.92 265.39 13.92 265.39 20.85 251.86 20.85 251.86 30.83 265.39 30.83 265.39 37.91 244.7 37.91 244.7 0"/></g></g></svg>